<svg id="Layer_1" enable-background="new 0 0 511.912 511.912" height="512" viewBox="0 0 511.912 511.912" width="512" xmlns="http://www.w3.org/2000/svg"><path d="m511.265 165.282c-3.507-36.895-21.258-71.695-49.982-97.992-28.719-26.293-65.107-41.221-102.462-42.034-37.466-.812-72.887 12.466-103.263 38.549-32.163-26.713-68.48-40.158-105.783-39.031-36.813 1.116-72.499 16.526-100.482 43.39-28.195 27.068-45.504 62.608-48.739 100.072-3.619 41.924 10.532 82.442 40.925 117.175.146.167.295.33.448.49 1.313 1.373 53.291 55.703 104.319 109.039l73.564 76.894c9.483 9.911 22.251 15.37 35.95 15.37s26.465-5.458 35.946-15.368l99.451-103.943c40.578-42.412 75.981-79.415 78.444-81.988.374-.391.724-.798 1.048-1.22 30.504-36.766 44.548-78.044 40.616-119.403zm-63.799 100.365c-4.895 5.115-39.058 40.822-77.983 81.507l-99.45 103.942c-3.769 3.938-8.836 6.108-14.271 6.108s-10.504-2.17-14.272-6.109l-73.564-76.893c-49.572-51.812-100.038-104.561-104.083-108.791-55.307-63.447-35.57-135.48 6.227-175.605 58.395-56.059 130.151-37.823 175.361 5.116 5.889 5.593 15.16 5.485 20.916-.249 59.367-59.133 132.164-44.178 174.68-5.256 43.245 39.592 61.965 109.408 6.439 176.23z"/></svg>