<svg id="Capa_1" enable-background="new 0 0 512 512" height="512" viewBox="0 0 512 512" width="512" xmlns="http://www.w3.org/2000/svg" xmlns:xlink="http://www.w3.org/1999/xlink"><linearGradient id="SVGID_1_" gradientUnits="userSpaceOnUse" x1="256" x2="256" y1="512" y2="0"><stop offset="0" stop-color="#c3ffe8"/><stop offset=".9973" stop-color="#f0fff4"/></linearGradient><linearGradient id="SVGID_2_" gradientUnits="userSpaceOnUse" x1="256.001" x2="256.001" y1="105" y2="407"><stop offset="0" stop-color="#00b59c"/><stop offset="1" stop-color="#9cffac"/></linearGradient><g><g><circle cx="256" cy="256" fill="url(#SVGID_1_)" r="256"/></g><g><g><path d="m282.647 264.882c34.28 0 62.177-27.896 62.177-62.177 0-34.28-27.896-62.177-62.177-62.177-34.28 0-62.176 27.896-62.176 62.177s27.896 62.177 62.176 62.177zm-24.045-59.574c3.47-3.47 9.091-3.47 12.56 0l2.602 2.602 20.367-20.367c3.47-3.47 9.091-3.47 12.56 0s3.47 9.091 0 12.56l-26.647 26.647c-1.735 1.735-4.007 2.602-6.28 2.602s-4.545-.867-6.28-2.602l-8.882-8.882c-3.469-3.469-3.469-9.09 0-12.56zm146.611-7.954c-1.683-2.221-4.311-3.531-7.095-3.531h-36.428c.333 2.955.898 5.841.898 8.882 0 44.082-35.859 79.941-79.941 79.941s-79.941-35.859-79.941-79.941c0-3.041.565-5.928.898-8.882h-28.721l-11.601-81.199c-.625-4.372-4.372-7.625-8.796-7.625h-40.604c-4.91 0-8.882 3.973-8.882 8.882s3.973 8.882 8.882 8.882h32.901l25.008 175.045c1.5 10.498 6.739 19.692 14.172 26.454-5.993 4.89-9.905 12.239-9.905 20.56 0 12.284 8.396 22.548 19.721 25.62-1.237 3.069-1.956 6.402-1.956 9.91 0 14.694 11.953 26.647 26.647 26.647s26.647-11.953 26.647-26.647c0-3.129-.641-6.09-1.636-8.882h74.331c-.995 2.792-1.636 5.753-1.636 8.882 0 14.694 11.953 26.647 26.647 26.647s26.647-11.953 26.647-26.647-11.953-26.647-26.647-26.647h-142.117c-4.901 0-8.882-3.981-8.882-8.883 0-4.9 3.981-8.882 8.882-8.882h133.079c19.725 0 37.282-13.246 42.712-32.216l28.165-98.582c.763-2.679.225-5.559-1.449-7.788z" fill="url(#SVGID_2_)"/></g></g></g></svg>